<svg xmlns="http://www.w3.org/2000/svg" viewBox="0 0 512 512"><path d="M408.58,82.21q27.57,30.32,42.27,74.25t14.7,99.69q0,55.77-15,99.85t-42,73.49a179.62,179.62,0,0,1-65.91,46.05Q304.63,491,255.85,491q-47.58,0-86.52-15.76a178.8,178.8,0,0,1-66.21-45.75q-27.27-30-42-73.64t-14.7-99.7Q46.45,201,61,157.21t42.42-75q26.67-29.68,66.22-45.45T255.85,21Q304.33,21,343,36.91T408.58,82.21Zm-5.46,173.94q0-87.87-39.39-135.6T256.15,72.82q-68.79,0-108,47.73t-39.24,135.6q0,88.8,40,135.91t107.27,47.12q67.28,0,107.12-47.12T403.12,256.15Zm-72,84.2H308.68V195l-46.9,98.91H248.41L201.85,195V340.35h-21V171.65h30.59l45,93.92L300,171.65h31.15Z"/></svg>