<svg id="Слой_1" data-name="Слой 1" xmlns="http://www.w3.org/2000/svg" viewBox="0 0 872 465"><defs><style>.cls-1,.cls-8{fill:#6c8ebf;}.cls-10,.cls-2,.cls-3,.cls-6,.cls-7{fill:none;}.cls-2,.cls-3{stroke:#8c8c8c;stroke-width:5px;}.cls-10,.cls-11,.cls-2,.cls-3,.cls-7,.cls-8{stroke-miterlimit:10;}.cls-3{stroke-dasharray:12.17 12.17;}.cls-4{fill:#fff;}.cls-5{fill:#00bf10;}.cls-6,.cls-7,.cls-8,.cls-9{stroke:#6c8ebf;}.cls-10,.cls-11,.cls-12,.cls-13,.cls-6,.cls-7,.cls-8,.cls-9{stroke-width:2px;}.cls-9{fill:#dae8fc;}.cls-10,.cls-11,.cls-12{stroke:#d6b656;}.cls-10{stroke-dasharray:6 6;}.cls-11,.cls-15{fill:#d6b656;}.cls-12{fill:#fff2cc;}.cls-13{fill:#d5e8d4;stroke:#82b366;}.cls-14{isolation:isolate;}.cls-16{fill:#82b366;}.cls-17{fill:#7ea6e0;}</style></defs><path class="cls-1" d="M600,287.75a26.28,26.28,0,1,0-26.27-26.28A26.3,26.3,0,0,0,600,287.75Zm183.93,0a26.28,26.28,0,1,0-26.27-26.28A26.3,26.3,0,0,0,784,287.75Zm13.14,13.14H770.82a26.19,26.19,0,0,0-18.51,7.63,60.1,60.1,0,0,1,30.83,44.92h27.1a13.12,13.12,0,0,0,13.13-13.14V327.16A26.29,26.29,0,0,0,797.1,300.89Zm-105.1,0a46,46,0,1,0-46-46A46,46,0,0,0,692,300.89ZM723.53,314h-3.41a63.48,63.48,0,0,1-56.25,0h-3.4a47.32,47.32,0,0,0-47.3,47.3v11.82a19.72,19.72,0,0,0,19.71,19.71H751.12a19.71,19.71,0,0,0,19.7-19.71V361.32A47.31,47.31,0,0,0,723.53,314Zm-91.84-5.5a26.2,26.2,0,0,0-18.52-7.63H586.9a26.3,26.3,0,0,0-26.28,26.27V340.3a13.12,13.12,0,0,0,13.14,13.14h27a60.23,60.23,0,0,1,30.88-44.92Z"/><line class="cls-2" x1="510.81" y1="13" x2="510.81" y2="19"/><line class="cls-3" x1="510.81" y1="31.17" x2="510.81" y2="438.93"/><line class="cls-2" x1="510.81" y1="445.01" x2="510.81" y2="451.01"/><path d="M235.25,46.67a9.14,9.14,0,0,1-.88,4.11A8.29,8.29,0,0,1,232,53.71a11.09,11.09,0,0,1-3.87,2,20.47,20.47,0,0,1-5.36.59H211.72V25.06H221a39.31,39.31,0,0,1,5.11.25,10.4,10.4,0,0,1,3.25,1.05,5.78,5.78,0,0,1,2.5,2.32,7,7,0,0,1,.77,3.38,6.23,6.23,0,0,1-1.13,3.78,8.13,8.13,0,0,1-3,2.51v.17a8.57,8.57,0,0,1,5,2.77A8,8,0,0,1,235.25,46.67Zm-7-14.06a4.37,4.37,0,0,0-.37-1.91,2.9,2.9,0,0,0-1.22-1.26,5.79,5.79,0,0,0-2.39-.7c-.93-.09-2.09-.14-3.48-.14h-4.94v9h5.36a19.68,19.68,0,0,0,3.11-.19,5.85,5.85,0,0,0,2.13-.83,3.49,3.49,0,0,0,1.4-1.63A6.22,6.22,0,0,0,228.27,32.61Zm2.67,14.23a6.62,6.62,0,0,0-.57-3A4.59,4.59,0,0,0,228.32,42a7,7,0,0,0-2.44-.68,34,34,0,0,0-3.49-.16h-6.52V52.72h5.49a28.52,28.52,0,0,0,4.46-.28,7,7,0,0,0,2.85-1,5.11,5.11,0,0,0,1.72-1.86A5.76,5.76,0,0,0,230.94,46.84Z"/><path d="M264.49,46.6a9.38,9.38,0,0,1-.89,4.11,8.37,8.37,0,0,1-2.38,3,11.1,11.1,0,0,1-3.77,2,19.08,19.08,0,0,1-5.2.59H241.14V25.06h4.15V37.3h7.09a29.31,29.31,0,0,1,5.19.37,8.58,8.58,0,0,1,3.8,1.75,7.43,7.43,0,0,1,2.35,3.06A10.54,10.54,0,0,1,264.49,46.6Zm-4.34.09a6.84,6.84,0,0,0-.52-2.77A4.44,4.44,0,0,0,258,42a5.89,5.89,0,0,0-2.66-.94,41.42,41.42,0,0,0-4.25-.17h-5.79V52.72H251a25.83,25.83,0,0,0,4.29-.27,6.68,6.68,0,0,0,2.63-1.05,5.17,5.17,0,0,0,1.72-1.91A6.38,6.38,0,0,0,260.15,46.69Zm12.11,9.58h-4.15V25.06h4.15Z"/><path d="M600.37,29.4A12.85,12.85,0,0,1,603,34a19.6,19.6,0,0,1,.91,6.18,19.21,19.21,0,0,1-.93,6.19,12.69,12.69,0,0,1-2.6,4.55,11.19,11.19,0,0,1-4.09,2.86,15.35,15.35,0,0,1-10.74,0,11.11,11.11,0,0,1-4.11-2.84,12.72,12.72,0,0,1-2.6-4.56,19.31,19.31,0,0,1-.91-6.18,19.37,19.37,0,0,1,.9-6.13,13.08,13.08,0,0,1,2.63-4.65,10.75,10.75,0,0,1,4.1-2.82,14.38,14.38,0,0,1,5.35-1,14,14,0,0,1,5.4,1A11.34,11.34,0,0,1,600.37,29.4ZM600,40.18c0-3.63-.82-6.44-2.45-8.41a9,9,0,0,0-13.36,0c-1.62,2-2.43,4.78-2.43,8.41s.82,6.48,2.48,8.42a9,9,0,0,0,13.29,0C599.2,46.66,600,43.85,600,40.18Z"/><path d="M630.91,45.49a8.42,8.42,0,0,1-.8,3.69A7.37,7.37,0,0,1,628,51.86a9.94,9.94,0,0,1-3.39,1.77,17,17,0,0,1-4.65.52H609.79v-28h18.73v3.31h-15v7.66h6.54a26.78,26.78,0,0,1,4.66.33,7.79,7.79,0,0,1,3.4,1.57,6.74,6.74,0,0,1,2.11,2.74A9.46,9.46,0,0,1,630.91,45.49Zm-3.89.08a6.16,6.16,0,0,0-.47-2.48,3.91,3.91,0,0,0-1.47-1.73,5.26,5.26,0,0,0-2.38-.84,36.88,36.88,0,0,0-3.82-.15h-5.37V51h5.28a22,22,0,0,0,3.84-.25,5.89,5.89,0,0,0,2.36-.94,4.61,4.61,0,0,0,1.54-1.71A5.61,5.61,0,0,0,627,45.57Z"/><path d="M667.4,54.15H636.17v-28h3.71V50.92h10.49V26.18h3.71V50.92h10.49V26.18h3.72V50.92h2.64v9.56H667.4Z"/><path d="M694.79,54.15H676.36v-28h18.43v3.31H680.08v7.66h14.71v3.31H680.08V50.85h14.71Z"/><path d="M722.29,52.12c-.69.3-1.31.59-1.87.85a19.58,19.58,0,0,1-2.19.83,23.91,23.91,0,0,1-2.49.61,15.87,15.87,0,0,1-3,.25,16.93,16.93,0,0,1-5.53-.85,11.36,11.36,0,0,1-4.33-2.68,12.12,12.12,0,0,1-2.81-4.54,18.31,18.31,0,0,1-1-6.39,18.21,18.21,0,0,1,1-6.18,12.5,12.5,0,0,1,2.81-4.6,11.61,11.61,0,0,1,4.32-2.78,15.63,15.63,0,0,1,5.6-1,19.16,19.16,0,0,1,4.5.54,24.09,24.09,0,0,1,5,1.92v4.41H722a16.57,16.57,0,0,0-4.59-2.82,13.44,13.44,0,0,0-4.86-.88,10,10,0,0,0-3.82.69,8.29,8.29,0,0,0-3,2.13,9.91,9.91,0,0,0-2,3.56,15.63,15.63,0,0,0-.72,5,14.5,14.5,0,0,0,.8,5.07,10.08,10.08,0,0,0,2.06,3.45,8,8,0,0,0,3.07,2.06,10.22,10.22,0,0,0,3.71.67,13.74,13.74,0,0,0,5-.92,14.74,14.74,0,0,0,4.4-2.76h.26Z"/><path d="M747.5,29.49h-10V54.15h-3.72V29.49h-10V26.18H747.5Z"/><path d="M772.35,45.55a8.27,8.27,0,0,1-.79,3.68,7.45,7.45,0,0,1-2.13,2.63A9.73,9.73,0,0,1,766,53.63a18.35,18.35,0,0,1-4.8.52h-9.92v-28h8.29a34,34,0,0,1,4.58.23,9.27,9.27,0,0,1,2.91.94,5.18,5.18,0,0,1,2.23,2.07,6.18,6.18,0,0,1,.7,3,5.65,5.65,0,0,1-1,3.39,7.31,7.31,0,0,1-2.71,2.24v.15a7.74,7.74,0,0,1,4.47,2.49A7.15,7.15,0,0,1,772.35,45.55ZM766.09,33a3.8,3.8,0,0,0-.34-1.71,2.58,2.58,0,0,0-1.09-1.13,5.23,5.23,0,0,0-2.14-.63q-1.26-.12-3.12-.12H755v8.08h4.81a17,17,0,0,0,2.78-.18,5.29,5.29,0,0,0,1.92-.74,3.17,3.17,0,0,0,1.24-1.46A5.45,5.45,0,0,0,766.09,33Zm2.39,12.75A6,6,0,0,0,768,43a4.13,4.13,0,0,0-1.84-1.69,6.36,6.36,0,0,0-2.19-.61,30.53,30.53,0,0,0-3.13-.14H755V51h4.92a27,27,0,0,0,4-.25,6.25,6.25,0,0,0,2.56-.94A4.66,4.66,0,0,0,768,48.12,5.28,5.28,0,0,0,768.48,45.7Z"/><path d="M798.47,29.4a12.56,12.56,0,0,1,2.62,4.6,19.31,19.31,0,0,1,.91,6.18,19.5,19.5,0,0,1-.92,6.19,12.56,12.56,0,0,1-2.61,4.55,11.07,11.07,0,0,1-4.08,2.86,15.38,15.38,0,0,1-10.75,0,11.16,11.16,0,0,1-4.1-2.84,12.72,12.72,0,0,1-2.6-4.56,19.31,19.31,0,0,1-.91-6.18,19.37,19.37,0,0,1,.9-6.13,13.08,13.08,0,0,1,2.63-4.65,10.75,10.75,0,0,1,4.1-2.82,14.38,14.38,0,0,1,5.35-1,14,14,0,0,1,5.4,1A11.21,11.21,0,0,1,798.47,29.4Zm-.33,10.78c0-3.63-.82-6.44-2.45-8.41a9,9,0,0,0-13.36,0c-1.62,2-2.43,4.78-2.43,8.41s.82,6.48,2.48,8.42a9,9,0,0,0,13.29,0C797.31,46.66,798.14,43.85,798.14,40.18Z"/><rect class="cls-4" x="588.53" y="249.8" width="23.02" height="23.02"/><polygon class="cls-4" points="706.48 229.82 677.51 229.82 663.03 254.91 677.51 279.99 706.48 279.99 720.96 254.91 706.48 229.82"/><polygon class="cls-4" points="783.96 247.88 771.2 269.99 796.73 269.99 783.96 247.88"/><path class="cls-5" d="M684.69,178.39l-32.6-32.59a5,5,0,0,1,0-7.1l7.09-7.09a5,5,0,0,1,7.1,0l22,22,47-47a5,5,0,0,1,7.09,0l7.09,7.09a5,5,0,0,1,0,7.09l-57.67,57.67a5,5,0,0,1-7.09,0Z"/><path class="cls-5" d="M593.27,210.09,574.6,191.42a2.87,2.87,0,0,1,0-4.06l4.06-4.06a2.87,2.87,0,0,1,4.06,0l12.58,12.58,26.93-26.94a2.89,2.89,0,0,1,4.07,0l4.06,4.06a2.89,2.89,0,0,1,0,4.07l-33,33a2.87,2.87,0,0,1-4.06,0Z"/><path class="cls-5" d="M778.63,210.09,760,191.42a2.87,2.87,0,0,1,0-4.06L764,183.3a2.87,2.87,0,0,1,4.06,0l12.58,12.58,26.94-26.94a2.87,2.87,0,0,1,4.06,0l4.06,4.06a2.89,2.89,0,0,1,0,4.07l-33,33a2.87,2.87,0,0,1-4.06,0Z"/><rect class="cls-6" x="38.64" y="111.87" width="419.22" height="253.28"/><path class="cls-7" d="M112,186.54h48.26"/><path class="cls-8" d="M169.43,186.54l-12.22,6.11,3-6.11-3-6.11Z"/><circle class="cls-9" cx="90.6" cy="186.54" r="16.16"/><path class="cls-10" d="M214.18,186.54h52.2"/><path class="cls-11" d="M271.62,186.54l-7,3.49,1.75-3.49-1.75-3.49Z"/><circle class="cls-12" cx="192.79" cy="186.54" r="16.16"/><path class="cls-10" d="M316.37,186.54h48.26"/><path class="cls-11" d="M373.8,186.54l-12.22,6.11,3.05-6.11-3.05-6.11Z"/><circle class="cls-12" cx="294.97" cy="186.54" r="16.16"/><circle class="cls-13" cx="397.16" cy="186.54" r="16.16"/><path class="cls-7" d="M112,238.94h48.26"/><path class="cls-8" d="M169.43,238.94l-12.22,6.12,3-6.12-3-6.11Z"/><circle class="cls-9" cx="90.6" cy="238.94" r="16.16"/><path class="cls-10" d="M214.18,238.94h52.2"/><path class="cls-11" d="M271.62,238.94l-7,3.5,1.75-3.5-1.75-3.49Z"/><circle class="cls-12" cx="192.79" cy="238.94" r="16.16"/><path class="cls-10" d="M316.37,238.94h48.26"/><path class="cls-11" d="M373.8,238.94l-12.22,6.12,3.05-6.12-3.05-6.11Z"/><circle class="cls-12" cx="294.97" cy="238.94" r="16.16"/><circle class="cls-13" cx="397.16" cy="238.94" r="16.16"/><path class="cls-7" d="M113.31,291.35h48.26"/><path class="cls-8" d="M170.74,291.35l-12.22,6.11,3-6.11-3-6.12Z"/><circle class="cls-9" cx="91.91" cy="291.35" r="16.16"/><path class="cls-10" d="M215.49,291.35h52.2"/><path class="cls-11" d="M272.93,291.35l-7,3.49,1.75-3.49-1.75-3.5Z"/><circle class="cls-12" cx="194.1" cy="291.35" r="16.16"/><path class="cls-10" d="M317.68,291.35h48.26"/><path class="cls-11" d="M375.11,291.35l-12.22,6.11,3.05-6.11-3.05-6.12Z"/><circle class="cls-12" cx="296.28" cy="291.35" r="16.16"/><circle class="cls-13" cx="398.47" cy="291.35" r="16.16"/><path class="cls-10" d="M276.81,225,211,200.48"/><path class="cls-11" d="M281.71,226.84l-7.76.83,2.86-2.67-.42-3.87Z"/><path class="cls-11" d="M206,198.65l7.77-.83L211,200.48l.42,3.88Z"/><path class="cls-10" d="M276.81,200.48,211,225"/><path class="cls-11" d="M281.71,198.65l-5.32,5.71.42-3.88L274,197.82Z"/><path class="cls-11" d="M206,226.84l5.33-5.71L211,225l2.86,2.67Z"/><path class="cls-10" d="M278.11,277.44,211,252.85"/><path class="cls-11" d="M283,279.25l-7.76.87,2.85-2.68-.45-3.88Z"/><path class="cls-11" d="M206,251l7.77-.87L211,252.85l.45,3.88Z"/><path class="cls-10" d="M276.82,252.92l-64.57,24.45"/><path class="cls-11" d="M281.72,251.06l-5.3,5.74.4-3.88L274,250.27Z"/><path class="cls-11" d="M207.35,279.23l5.3-5.74-.4,3.88,2.87,2.65Z"/><g class="cls-14"><path class="cls-15" d="M182.91,336.61a4.88,4.88,0,0,1-.36,1.88,4.44,4.44,0,0,1-1,1.49,5.16,5.16,0,0,1-1.87,1.19,8,8,0,0,1-2.71.39h-2v5.68h-2V332h4.13a10.3,10.3,0,0,1,2.33.23,5.71,5.71,0,0,1,1.69.72,4.15,4.15,0,0,1,1.34,1.46A4.51,4.51,0,0,1,182.91,336.61Zm-2.11.05a3.07,3.07,0,0,0-.28-1.37,2.28,2.28,0,0,0-.84-1,3.29,3.29,0,0,0-1.12-.45,7.74,7.74,0,0,0-1.59-.14h-2v6.09h1.71a7.32,7.32,0,0,0,2-.22,2.88,2.88,0,0,0,1.25-.7,2.93,2.93,0,0,0,.68-1A3.63,3.63,0,0,0,180.8,336.66Z"/><path class="cls-15" d="M194.31,347.24H192.4V346l-.7.49a5.44,5.44,0,0,1-.84.5,6.5,6.5,0,0,1-1.11.39,5.72,5.72,0,0,1-1.46.16,3.67,3.67,0,0,1-2.62-1,3.46,3.46,0,0,1-1.07-2.62,3.64,3.64,0,0,1,.55-2.1,3.85,3.85,0,0,1,1.6-1.26,8.46,8.46,0,0,1,2.5-.63q1.47-.17,3.15-.24v-.3a2.28,2.28,0,0,0-.23-1.08,1.69,1.69,0,0,0-.67-.68,2.76,2.76,0,0,0-1-.32,9.18,9.18,0,0,0-1.2-.08,8.3,8.3,0,0,0-1.68.2,13.1,13.1,0,0,0-1.93.58h-.1v-2c.37-.1.92-.21,1.63-.33a11.6,11.6,0,0,1,2.09-.19,10,10,0,0,1,2.11.2,4.21,4.21,0,0,1,1.55.68,3,3,0,0,1,1,1.22,4.43,4.43,0,0,1,.34,1.85Zm-1.91-2.81v-3.19l-2.08.16a11.16,11.16,0,0,0-1.89.29,3.06,3.06,0,0,0-1.34.74,2.1,2.1,0,0,0,.09,2.84,2.75,2.75,0,0,0,1.81.5,4.21,4.21,0,0,0,1.85-.4A8.73,8.73,0,0,0,192.4,344.43Z"/><path class="cls-15" d="M206.57,346.52a11.32,11.32,0,0,1-2,.77,7,7,0,0,1-1.68.21,6.77,6.77,0,0,1-2.3-.37,4.77,4.77,0,0,1-1.79-1.1,5,5,0,0,1-1.16-1.86,7.53,7.53,0,0,1-.41-2.63,6.18,6.18,0,0,1,1.51-4.37,5.41,5.41,0,0,1,4.15-1.63,6.69,6.69,0,0,1,1.94.28,9.62,9.62,0,0,1,1.76.68v2.13h-.11a7.54,7.54,0,0,0-1.88-1.07,5.17,5.17,0,0,0-1.8-.35,3.19,3.19,0,0,0-2.64,1.15,5.84,5.84,0,0,0,0,6.34,3.26,3.26,0,0,0,2.65,1.13,4.52,4.52,0,0,0,1.21-.16,5.59,5.59,0,0,0,1.09-.39,8.7,8.7,0,0,0,.8-.47c.28-.18.47-.31.58-.4h.11Z"/><path class="cls-15" d="M217.77,346.52a11.61,11.61,0,0,1-2,.77,7,7,0,0,1-1.69.21,6.75,6.75,0,0,1-2.29-.37A4.69,4.69,0,0,1,210,346a4.87,4.87,0,0,1-1.16-1.86,7.52,7.52,0,0,1-.42-2.63,6.18,6.18,0,0,1,1.52-4.37,5.4,5.4,0,0,1,4.14-1.63,6.81,6.81,0,0,1,1.95.28,9.91,9.91,0,0,1,1.76.68v2.13h-.12a7.49,7.49,0,0,0-1.87-1.07,5.17,5.17,0,0,0-1.8-.35,3.22,3.22,0,0,0-2.65,1.15,4.9,4.9,0,0,0-.93,3.18,4.82,4.82,0,0,0,.93,3.16,3.24,3.24,0,0,0,2.65,1.13,4.5,4.5,0,0,0,1.2-.16,5.36,5.36,0,0,0,1.09-.39,8.8,8.8,0,0,0,.81-.47,6.46,6.46,0,0,0,.57-.4h.12Z"/><path class="cls-15" d="M230.29,335.81l-6.67,15.65h-2.06l2.13-4.77-4.55-10.88h2.09l3.51,8.47,3.54-8.47Z"/><path class="cls-15" d="M247.15,347.24h-2.32L241.16,342h-.93v5.22h-1.9V342h-.83l-3.83,5.22h-2.22l4.41-6a2.71,2.71,0,0,1-.88-.75,4.83,4.83,0,0,1-.7-1.49,2.85,2.85,0,0,0-.66-1.21,1.86,1.86,0,0,0-1.24-.33h-.54v-1.66h.71a3.61,3.61,0,0,1,2,.51,3.51,3.51,0,0,1,1.23,1.79c.06.18.14.38.23.61s.17.42.24.58a2.38,2.38,0,0,0,.87,1.1,2.48,2.48,0,0,0,1.18.36v-4.95h1.9v4.95a2.42,2.42,0,0,0,1.19-.37,2.3,2.3,0,0,0,.88-1.09c.08-.17.16-.37.25-.59s.17-.43.22-.6a3,3,0,0,1,3.25-2.3h.7v1.66h-.54a1.78,1.78,0,0,0-1.25.36,2.59,2.59,0,0,0-.64,1.18,4.58,4.58,0,0,1-.69,1.42,2.73,2.73,0,0,1-.85.76Z"/><path class="cls-15" d="M259.91,350h-1.79v-2.77h-8.59V350h-1.8V345.6H249a15,15,0,0,0,1.79-4.56,23.56,23.56,0,0,0,.59-5.23h7.18v9.79h1.38Zm-3.3-4.38v-8.17h-3.45a19.05,19.05,0,0,1-.79,4.68,15.39,15.39,0,0,1-1.5,3.49Z"/><path class="cls-15" d="M272.13,341.72h-8.42a4.88,4.88,0,0,0,.32,1.84,3.5,3.5,0,0,0,.87,1.29,3.43,3.43,0,0,0,1.26.73,4.9,4.9,0,0,0,1.61.25,6.39,6.39,0,0,0,2.35-.47,5.9,5.9,0,0,0,1.69-.91h.1v2.09a14.2,14.2,0,0,1-2,.69,7.77,7.77,0,0,1-2.13.28,6.18,6.18,0,0,1-4.44-1.54,5.83,5.83,0,0,1-1.59-4.38,6.28,6.28,0,0,1,1.53-4.45,5.23,5.23,0,0,1,4-1.65,4.63,4.63,0,0,1,3.57,1.35,5.42,5.42,0,0,1,1.25,3.84Zm-1.87-1.47a3.41,3.41,0,0,0-.76-2.34,2.92,2.92,0,0,0-2.29-.83,3.32,3.32,0,0,0-2.46.91,3.54,3.54,0,0,0-1,2.26Z"/><path class="cls-15" d="M284.62,347.24H282.7v-5.15H277v5.15h-1.93V335.81H277v4.62h5.72v-4.62h1.92Z"/><path class="cls-15" d="M298,347.24h-1.91v-8.59l-6,8.59h-1.74V335.81h1.9v8.46l5.93-8.46H298Z"/><path class="cls-15" d="M310.61,347.24h-1.93v-4.53h-2.26l-3.54,4.53h-2.26l3.85-4.72a4.08,4.08,0,0,1-2.17-1.25,3.39,3.39,0,0,1-.69-2.22,2.81,2.81,0,0,1,.41-1.54,3.41,3.41,0,0,1,1-1,3.77,3.77,0,0,1,1.42-.52,9.44,9.44,0,0,1,1.74-.14h4.4Zm-1.93-6.05v-3.85h-2.42a7.51,7.51,0,0,0-1.14.06,2.25,2.25,0,0,0-.76.27,1.37,1.37,0,0,0-.58.61,1.82,1.82,0,0,0-.19.84,3.28,3.28,0,0,0,.11.91,1.46,1.46,0,0,0,.49.65,2.08,2.08,0,0,0,.92.4,5.67,5.67,0,0,0,1.21.11Z"/></g><g class="cls-14"><path class="cls-16" d="M365.13,342.55a4.44,4.44,0,0,1-.43,2,3.88,3.88,0,0,1-1.16,1.43,5.52,5.52,0,0,1-1.88,1,10.08,10.08,0,0,1-2.62.28h-5.4V332h4.51a19,19,0,0,1,2.5.12,5.24,5.24,0,0,1,1.58.52,2.8,2.8,0,0,1,1.22,1.13,3.3,3.3,0,0,1,.38,1.65,3.07,3.07,0,0,1-.55,1.85,4,4,0,0,1-1.47,1.22v.08a4.19,4.19,0,0,1,2.43,1.36A3.9,3.9,0,0,1,365.13,342.55Zm-3.41-6.86a2.22,2.22,0,0,0-.18-.94,1.44,1.44,0,0,0-.59-.61,2.92,2.92,0,0,0-1.17-.34,16.21,16.21,0,0,0-1.7-.07h-2.42v4.4h2.62a10.12,10.12,0,0,0,1.52-.09,3,3,0,0,0,1-.41,1.67,1.67,0,0,0,.68-.79A2.92,2.92,0,0,0,361.72,335.69Zm1.3,6.95a3.33,3.33,0,0,0-.27-1.47,2.24,2.24,0,0,0-1-.92,3.28,3.28,0,0,0-1.19-.33,16.16,16.16,0,0,0-1.7-.08h-3.19v5.67h2.69a13.17,13.17,0,0,0,2.18-.14,3.51,3.51,0,0,0,1.39-.5,2.66,2.66,0,0,0,.84-.91A3,3,0,0,0,363,342.64Z"/><path class="cls-16" d="M376.88,343.7a3.37,3.37,0,0,1-.33,1.5,2.9,2.9,0,0,1-.91,1.1,4.46,4.46,0,0,1-1.44.73,7.68,7.68,0,0,1-2,.21h-4.37V335.81h1.93v4.45h2.5a12.58,12.58,0,0,1,2,.13,3.47,3.47,0,0,1,1.41.66,2.63,2.63,0,0,1,.89,1.12A3.8,3.8,0,0,1,376.88,343.7Zm-2,0a2.22,2.22,0,0,0-.18-.92,1.51,1.51,0,0,0-.59-.64,2.25,2.25,0,0,0-1-.3c-.36,0-.89-.05-1.57-.05h-1.8v3.89h1.76a10.8,10.8,0,0,0,1.59-.09,2.85,2.85,0,0,0,1-.33,1.74,1.74,0,0,0,.61-.63A2.07,2.07,0,0,0,374.9,343.73Zm3.89-7.92h1.93v11.43h-1.93Z"/><path class="cls-16" d="M393.94,343.78a3.22,3.22,0,0,1-.33,1.48,3.06,3.06,0,0,1-.92,1.07,4.48,4.48,0,0,1-1.42.7,8.08,8.08,0,0,1-2,.21h-4.72V335.81h4.42a15.37,15.37,0,0,1,1.93.09,3.47,3.47,0,0,1,1.22.38,2.2,2.2,0,0,1,.95.88,2.6,2.6,0,0,1,.3,1.28,2.32,2.32,0,0,1-.48,1.47,3.34,3.34,0,0,1-1.24,1v.1a3.34,3.34,0,0,1,1.67.94A2.6,2.6,0,0,1,393.94,343.78Zm-2.59-5a1.35,1.35,0,0,0-.16-.67,1,1,0,0,0-.48-.46,2.52,2.52,0,0,0-1-.24q-.54,0-1.32,0h-2v3.14h2.4a7.72,7.72,0,0,0,1.13-.06,2.07,2.07,0,0,0,.73-.28,1.41,1.41,0,0,0,.54-.58A2.19,2.19,0,0,0,391.35,338.74Zm.61,5.05a1.86,1.86,0,0,0-.19-.91,1.6,1.6,0,0,0-.81-.65,2.08,2.08,0,0,0-.83-.22c-.31,0-.72,0-1.25,0h-2.47v3.74h1.82a15.58,15.58,0,0,0,1.77-.08,2.86,2.86,0,0,0,1.07-.33,1.78,1.78,0,0,0,.67-.63A1.74,1.74,0,0,0,392,343.79Z"/><path class="cls-16" d="M406.72,341.53a6.4,6.4,0,0,1-1.44,4.41,5.37,5.37,0,0,1-7.69,0,7.53,7.53,0,0,1,0-8.83,5.37,5.37,0,0,1,7.69,0A6.44,6.44,0,0,1,406.72,341.53Zm-2,0a5.21,5.21,0,0,0-.87-3.3,3.26,3.26,0,0,0-4.85,0,5.27,5.27,0,0,0-.86,3.3,5.21,5.21,0,0,0,.87,3.26,3.19,3.19,0,0,0,4.83,0A5.12,5.12,0,0,0,404.73,341.53Z"/><path class="cls-16" d="M420.07,350h-1.79v-2.77h-8.6V350h-1.79V345.6h1.24a15.29,15.29,0,0,0,1.79-4.56,23.56,23.56,0,0,0,.59-5.23h7.18v9.79h1.38Zm-3.3-4.38v-8.17h-3.45a19.05,19.05,0,0,1-.79,4.68A14.94,14.94,0,0,1,411,345.6Z"/><path class="cls-16" d="M431.75,343.7a3.37,3.37,0,0,1-.33,1.5,2.9,2.9,0,0,1-.91,1.1,4.46,4.46,0,0,1-1.44.73,7.68,7.68,0,0,1-2,.21h-4.37V335.81h1.93v4.45h2.49a12.73,12.73,0,0,1,2,.13,3.47,3.47,0,0,1,1.41.66,2.63,2.63,0,0,1,.89,1.12A3.8,3.8,0,0,1,431.75,343.7Zm-2,0a2.4,2.4,0,0,0-.17-.92,1.51,1.51,0,0,0-.59-.64,2.3,2.3,0,0,0-1-.3c-.37,0-.89-.05-1.57-.05h-1.8v3.89h1.76a10.56,10.56,0,0,0,1.58-.09,2.83,2.83,0,0,0,1-.33,1.74,1.74,0,0,0,.61-.63A2.08,2.08,0,0,0,429.76,343.73Zm3.9-7.92h1.93v11.43h-1.93Z"/></g><g class="cls-14"><path class="cls-17" d="M171.22,127.94a3.68,3.68,0,0,1-.57,2,5.93,5.93,0,0,1-1.46,1.54,5.51,5.51,0,0,1-1.83.86,8.43,8.43,0,0,1-2.17.27,10.37,10.37,0,0,1-2.33-.24,10.17,10.17,0,0,1-1.6-.51l.41-1.79h.13a7.73,7.73,0,0,0,1.68.82,6.32,6.32,0,0,0,2,.33,5.14,5.14,0,0,0,1.37-.21,4.09,4.09,0,0,0,1.26-.55,3.06,3.06,0,0,0,.95-1.05,2.83,2.83,0,0,0,.34-1.41,1.5,1.5,0,0,0-.71-1.35,4.22,4.22,0,0,0-2.17-.44h-1.82l.33-1.39h1.58a4.72,4.72,0,0,0,2.61-.66,2,2,0,0,0,1-1.77,1.29,1.29,0,0,0-.62-1.13,3.43,3.43,0,0,0-1.86-.4,7.45,7.45,0,0,0-2,.3,9.73,9.73,0,0,0-2.06.82h-.11l.42-1.79a10.11,10.11,0,0,1,1.82-.51,10.94,10.94,0,0,1,2.15-.23,5.79,5.79,0,0,1,3,.65,2.08,2.08,0,0,1,1.07,1.91,2.94,2.94,0,0,1-.92,2.17,4.31,4.31,0,0,1-2.18,1.19l0,.13a3.67,3.67,0,0,1,.79.23,2.68,2.68,0,0,1,.73.44,2.16,2.16,0,0,1,.54.71A2.4,2.4,0,0,1,171.22,127.94Z"/><path class="cls-17" d="M182,126.23a7.73,7.73,0,0,1-.39,2.46,6.22,6.22,0,0,1-1.11,2.05,5.7,5.7,0,0,1-1.71,1.41,4.84,4.84,0,0,1-2.27.51,3.55,3.55,0,0,1-2.65-1,3.64,3.64,0,0,1-.95-2.67,7.56,7.56,0,0,1,.39-2.44,6.28,6.28,0,0,1,1.12-2.07,5.34,5.34,0,0,1,1.73-1.39,4.9,4.9,0,0,1,2.25-.52,3.31,3.31,0,0,1,3.59,3.63Zm-2.61,3.6a5.11,5.11,0,0,0,.7-1.57,6.92,6.92,0,0,0,.25-1.9,2.59,2.59,0,0,0-.57-1.81,2.13,2.13,0,0,0-1.62-.61,2.76,2.76,0,0,0-1.48.4,3.52,3.52,0,0,0-1.13,1.08,5.08,5.08,0,0,0-.71,1.58,6.88,6.88,0,0,0-.25,1.88,2.62,2.62,0,0,0,.57,1.81,2.07,2.07,0,0,0,1.62.63,2.91,2.91,0,0,0,1.49-.39A3.58,3.58,0,0,0,179.41,129.83Z"/><path class="cls-17" d="M191.24,132.39h-1.62l1-4.32h-4.74l-1,4.32h-1.62l2.2-9.52h1.62l-.91,3.92h4.74l.91-3.92h1.62Z"/><path class="cls-17" d="M200.44,131.38l-.63.39a7,7,0,0,1-.81.43,5,5,0,0,1-1,.32,5.1,5.1,0,0,1-1.24.14A2.59,2.59,0,0,1,195,132a2.27,2.27,0,0,1-.71-1.73,3.52,3.52,0,0,1,.5-1.92,3.65,3.65,0,0,1,1.48-1.27,7.64,7.64,0,0,1,2.32-.7,23,23,0,0,1,3.11-.27c0-.16.06-.3.08-.42a1.37,1.37,0,0,0,0-.36,1.2,1.2,0,0,0-.16-.66,1.15,1.15,0,0,0-.46-.41,1.85,1.85,0,0,0-.7-.21,5.75,5.75,0,0,0-.87-.06,6.71,6.71,0,0,0-1.66.24,12.27,12.27,0,0,0-1.51.46h-.09l.32-1.6c.32-.09.8-.18,1.42-.29a10.45,10.45,0,0,1,1.8-.16,5.08,5.08,0,0,1,2.66.55,1.91,1.91,0,0,1,.89,1.76,2.93,2.93,0,0,1,0,.49,3.86,3.86,0,0,1-.09.49l-1.49,6.46H200.2Zm.93-4a21.12,21.12,0,0,0-2.34.2,6.8,6.8,0,0,0-1.68.43,2.43,2.43,0,0,0-1,.76,1.94,1.94,0,0,0-.36,1.2,1.12,1.12,0,0,0,.42.94,2.08,2.08,0,0,0,1.29.32,4,4,0,0,0,1.58-.34,8.81,8.81,0,0,0,1.51-.83Z"/><path class="cls-17" d="M220,132.39h-1.6l1.7-7.37-3.39,4.75h-1.17l-1.28-5.06-1.77,7.68H211l2.2-9.52h1.95l1.35,5.34,3.73-5.34h2Z"/><path class="cls-17" d="M229.23,131.38l-.63.39a6.89,6.89,0,0,1-.8.43,5.12,5.12,0,0,1-1,.32,5,5,0,0,1-1.23.14,2.62,2.62,0,0,1-1.85-.66,2.26,2.26,0,0,1-.7-1.73,3.43,3.43,0,0,1,.5-1.92,3.59,3.59,0,0,1,1.48-1.27,7.55,7.55,0,0,1,2.32-.7,22.8,22.8,0,0,1,3.1-.27q0-.24.09-.42a2,2,0,0,0,0-.36,1.2,1.2,0,0,0-.16-.66,1.15,1.15,0,0,0-.46-.41,1.86,1.86,0,0,0-.69-.21,6,6,0,0,0-.88-.06,6.77,6.77,0,0,0-1.66.24,12.27,12.27,0,0,0-1.51.46h-.08l.31-1.6c.33-.09.8-.18,1.43-.29a10.28,10.28,0,0,1,1.8-.16,5.1,5.1,0,0,1,2.66.55,1.93,1.93,0,0,1,.89,1.76,4.6,4.6,0,0,1,0,.49l-.09.49-1.49,6.46H229Zm.93-4a20.93,20.93,0,0,0-2.33.2,7,7,0,0,0-1.69.43,2.43,2.43,0,0,0-1,.76,1.94,1.94,0,0,0-.36,1.2,1.12,1.12,0,0,0,.42.94,2.09,2.09,0,0,0,1.3.32,4,4,0,0,0,1.58-.34,8.72,8.72,0,0,0,1.5-.83Z"/><path class="cls-17" d="M242.57,124.15h-3.44l-1.89,8.24h-1.61l1.88-8.24h-3.44l.31-1.28h8.5Z"/><path class="cls-17" d="M245,132.39h-2.05l.56-2.43h2.06Z"/><path class="cls-17" d="M262.52,132.39h-1.61l1.9-8.24h-3.54c-.12.52-.24,1-.34,1.43l-.3,1.19q-.3,1.16-.57,2a10.34,10.34,0,0,1-.51,1.27,6.48,6.48,0,0,1-.53.92,4.66,4.66,0,0,1-.47.6,2.61,2.61,0,0,1-1.05.73,3.41,3.41,0,0,1-1.06.17h-.82L254,131h.48a1.6,1.6,0,0,0,.45-.07,1.06,1.06,0,0,0,.41-.21,4.25,4.25,0,0,0,1-1.45,17.94,17.94,0,0,0,1-2.93c.11-.41.25-1,.41-1.63s.31-1.29.45-1.85h6.59Z"/><path class="cls-17" d="M275,126.23a7.73,7.73,0,0,1-.39,2.46,6.61,6.61,0,0,1-1.11,2.05,5.62,5.62,0,0,1-1.72,1.41,4.81,4.81,0,0,1-2.27.51,3.54,3.54,0,0,1-2.64-1,3.64,3.64,0,0,1-1-2.67,7.56,7.56,0,0,1,.38-2.44,6.66,6.66,0,0,1,1.12-2.07,5.49,5.49,0,0,1,1.74-1.39,4.87,4.87,0,0,1,2.25-.52,3.31,3.31,0,0,1,3.59,3.63Zm-2.61,3.6a5.11,5.11,0,0,0,.7-1.57,7.33,7.33,0,0,0,.25-1.9,2.59,2.59,0,0,0-.58-1.81,2.11,2.11,0,0,0-1.61-.61,2.76,2.76,0,0,0-1.48.4,3.65,3.65,0,0,0-1.14,1.08,5.3,5.3,0,0,0-.7,1.58,6.88,6.88,0,0,0-.25,1.88,2.62,2.62,0,0,0,.57,1.81,2.07,2.07,0,0,0,1.62.63,2.85,2.85,0,0,0,1.48-.39A3.51,3.51,0,0,0,272.43,129.83Z"/><path class="cls-17" d="M284.75,124.15H279.8l-1.91,8.24h-1.62l2.21-9.52H285Z"/><path class="cls-17" d="M292.54,132.39h-1.6l1.66-7.15L286,132.39h-1.47l2.2-9.52h1.6l-1.62,7,6.53-7h1.52Z"/><path class="cls-17" d="M304.44,132.39h-1.95l-3.18-4.4h-.93l-1,4.4h-1.62l2.2-9.52h1.62l-1,4.13a2.86,2.86,0,0,0,1.22-.25,3,3,0,0,0,1.11-1c.12-.15.23-.32.35-.5s.23-.36.34-.51a5.33,5.33,0,0,1,1.3-1.37,3.87,3.87,0,0,1,2.22-.52h.73l-.31,1.33h-.66a1.89,1.89,0,0,0-1.13.33,3.92,3.92,0,0,0-.93,1,5.83,5.83,0,0,1-1.05,1.23,4,4,0,0,1-1.05.65Z"/><path class="cls-17" d="M314.06,132.39h-1.6l1.66-7.15-6.62,7.15H306l2.21-9.52h1.6l-1.62,7,6.52-7h1.53Z"/></g></svg>